# xmcd CD database file
#
# Track frame offsets:
#	150
#	17248
#	33828
#
# Disc length: 686 seconds
#
# Revision: 5
# Processed by: cddbd v1.5.2PL0 Copyright (c) Steve Scherf et al.
# Submitted via: jetAudio 7
#
DISCID=1902ac03
DTITLE=ELLEGARDEN - Bare Foot
DYEAR=1997
DGENRE=Rock
TTITLE0=Bare Foot
TTITLE1=Raindrops
TTITLE2=A Thousand Smiles
EXTD=
EXTT0=
EXTT1=
EXTT2=
PLAYORDER=
